<?xml version="1.0" standalone="no"?>
<!DOCTYPE svg PUBLIC "-//W3C//DTD SVG 20010904//EN"
 "http://www.w3.org/TR/2001/REC-SVG-20010904/DTD/svg10.dtd">
<svg version="1.0" xmlns="http://www.w3.org/2000/svg"
 width="564.000000pt" height="806.000000pt" viewBox="0 0 564.000000 806.000000"
 preserveAspectRatio="xMidYMid meet">
<metadata>
Created by potrace 1.16, written by Peter Selinger 2001-2019
</metadata>
<g transform="translate(0.000000,806.000000) scale(0.100000,-0.100000)"
fill="#000000" stroke="none">
<path d="M580 3500 c-27 -21 -46 -25 -52 -11 -1 4 -13 12 -26 16 -19 5 -25 3
-29 -14 -3 -12 -11 -21 -18 -21 -14 0 -28 -27 -20 -40 10 -16 54 -17 58 -1 4
13 5 13 6 -1 1 -13 10 -18 33 -18 17 0 46 -5 64 -12 26 -9 38 -9 57 1 14 7 33
11 43 8 16 -4 16 -5 -3 -6 -12 0 -25 -6 -28 -12 -5 -7 12 -8 54 -3 68 7 139
-7 184 -39 16 -10 30 -17 33 -14 7 7 -46 47 -63 47 -22 0 -75 32 -97 58 -10
13 -25 21 -32 18 -8 -3 -14 -2 -14 3 0 7 -35 27 -53 29 -4 1 -20 8 -37 17 -35
18 -30 19 -60 -5z"/>
<path d="M408 3381 c-5 -14 -13 -44 -16 -66 -9 -51 -9 -341 -1 -350 4 -3 32
-9 62 -12 41 -4 59 -2 69 8 24 26 11 84 -16 73 -8 -3 -17 0 -22 7 -4 8 -3 10
4 5 7 -4 12 -1 12 7 0 8 7 14 16 13 9 0 19 5 22 13 3 9 -1 11 -14 7 -11 -3
-26 -1 -34 4 -13 8 -12 10 4 10 11 0 17 2 14 5 -6 7 71 85 84 85 4 0 8 9 8 20
0 20 0 20 -35 0 -20 -11 -40 -20 -46 -20 -11 0 45 77 70 96 8 7 11 16 6 24 -6
10 -4 12 8 7 20 -7 23 8 5 17 -7 3 -1 4 14 2 15 -1 25 1 22 6 -3 5 7 6 23 3
15 -3 3 4 -27 15 -30 11 -93 26 -138 33 l-84 13 -10 -25z"/>
<path d="M798 3303 c36 -7 25 -30 -23 -44 -42 -12 -43 -14 -27 -30 15 -15 20
-15 38 -4 14 9 25 10 31 4 6 -6 21 -4 43 4 21 9 28 16 19 20 -9 3 -7 5 6 6 11
0 29 -4 40 -9 19 -8 19 -9 1 -9 -20 -1 -91 -50 -83 -57 2 -2 17 2 33 11 33 17
64 20 64 5 0 -14 22 -8 37 10 12 13 12 13 7 -1 -6 -18 20 -29 73 -29 31 0 58
-19 31 -21 -22 -2 -32 -5 -51 -13 -15 -7 -16 -11 -5 -17 16 -11 31 -12 25 -1
-7 10 71 15 86 5 11 -7 67 -14 67 -8 0 2 -60 32 -132 68 -134 66 -264 118
-289 116 -8 -1 -4 -4 9 -6z"/>
<path d="M5145 3128 c5 -44 12 -58 58 -108 48 -53 53 -56 70 -42 10 9 15 22
13 29 -3 7 -1 15 4 18 17 11 11 24 -15 31 -28 7 -31 14 -12 33 10 11 9 14 -1
18 -10 4 -8 9 5 19 17 13 17 13 -2 15 -30 3 -37 5 -70 18 -16 6 -36 14 -42 16
-9 3 -11 -9 -8 -47z"/>
<path d="M1110 3101 l-65 -6 59 -8 c45 -6 166 -50 166 -60 0 -1 -23 -3 -51 -4
-29 -1 -49 0 -46 4 4 3 2 14 -3 24 -8 15 -21 17 -80 15 -39 -1 -76 -8 -82 -14
-9 -9 -7 -12 8 -13 10 -1 24 0 29 2 21 6 113 4 109 -3 -6 -10 76 -61 84 -53 4
3 0 10 -8 15 -10 6 -5 9 16 8 17 -1 36 2 42 6 6 3 12 2 14 -4 1 -5 18 -14 36
-19 47 -14 37 8 -16 34 -23 11 -44 27 -47 35 -5 14 -77 52 -93 48 -4 -1 -36
-4 -72 -7z"/>
<path d="M1086 3008 c4 -14 2 -18 -5 -14 -14 9 -53 -3 -46 -14 3 -5 30 -12 60
-15 30 -4 55 -11 55 -16 0 -5 11 -4 25 1 15 6 25 6 25 0 0 -5 10 -12 23 -16
12 -3 34 -21 49 -39 25 -29 31 -32 60 -25 18 4 40 11 49 14 9 4 21 0 29 -9 7
-8 24 -15 38 -15 l25 0 -23 25 c-13 14 -29 25 -36 25 -8 0 -11 6 -8 13 4 12
-63 53 -73 44 -2 -3 8 -19 23 -36 14 -18 24 -34 22 -37 -3 -3 -24 18 -48 46
-25 30 -50 50 -63 50 -19 0 -19 -1 4 -23 13 -13 30 -21 37 -19 6 2 12 0 12 -5
0 -15 -38 -13 -44 3 -3 8 -15 14 -27 14 -13 0 -30 6 -38 14 -9 8 -42 23 -74
35 l-58 20 7 -21z"/>
<path d="M5156 3018 c4 -7 16 -25 26 -40 22 -32 14 -36 -16 -10 -20 17 -20 17
-2 -12 10 -16 13 -25 7 -22 -19 12 -12 -20 8 -38 18 -16 20 -16 35 5 8 13 19
19 23 15 4 -4 0 -13 -10 -21 -9 -7 -28 -21 -41 -30 l-24 -18 21 -19 22 -19
-25 6 c-24 6 -24 5 -6 -9 18 -15 18 -17 2 -35 -16 -18 -15 -20 15 -46 l33 -27
8 24 c5 12 16 29 25 35 9 7 14 16 10 19 -4 4 -15 1 -24 -7 -16 -12 -17 -12 -6
2 10 12 10 18 1 27 -9 9 -8 12 5 12 15 0 22 18 18 44 -1 4 4 15 11 23 11 14
10 15 -12 8 -22 -7 -23 -6 -12 7 18 23 -1 70 -25 62 -15 -5 -15 -4 -3 4 12 9
8 16 -20 41 -36 32 -57 40 -44 19z"/>
<path d="M406 2820 c4 -36 8 -76 8 -90 1 -14 5 -31 9 -37 5 -7 5 -18 2 -23 -4
-6 -2 -17 4 -24 6 -7 9 -20 6 -28 -3 -8 3 -25 15 -38 21 -24 26 -35 12 -26 -5
3 -9 -1 -9 -9 0 -8 4 -12 8 -10 7 5 19 -19 19 -38 0 -7 -4 -6 -10 3 -5 8 -10
10 -10 5 0 -6 7 -21 16 -33 8 -12 13 -26 10 -31 -3 -5 1 -11 9 -15 8 -3 12
-11 9 -19 -2 -7 4 -22 16 -32 23 -21 26 -41 8 -48 -8 -4 -5 -8 9 -12 25 -8 36
-38 19 -56 -8 -9 -8 -10 1 -5 8 4 19 -8 32 -34 10 -22 15 -40 10 -40 -5 0 -9
-5 -9 -11 0 -5 5 -7 10 -4 5 3 10 0 10 -9 0 -8 3 -23 7 -33 7 -17 6 -17 -20 0
-14 9 -29 17 -33 17 -7 0 0 -90 11 -150 7 -40 11 -74 13 -130 2 -36 5 -40 28
-40 23 0 25 3 20 25 -5 20 -3 23 11 18 13 -5 15 -3 10 12 -6 15 -5 16 8 5 13
-11 15 -8 15 16 0 49 11 74 36 80 20 5 22 9 13 26 -6 11 -31 29 -55 39 -54 24
-56 34 -6 24 20 -4 52 -8 70 -10 37 -4 56 -15 26 -16 -18 0 -18 -1 1 -9 11 -5
27 -9 35 -9 13 -1 13 0 0 9 -8 5 -11 10 -6 10 5 0 1 10 -10 23 l-19 22 23 -19
c12 -11 22 -15 22 -10 0 5 7 0 15 -10 15 -19 15 -19 15 1 0 11 7 23 15 27 22
8 18 21 -11 41 -21 14 -28 14 -41 3 -14 -11 -15 -10 -9 9 5 16 2 25 -14 33
-12 6 -20 14 -17 17 3 2 15 -2 26 -9 19 -12 24 -10 40 11 18 24 19 24 25 4 5
-15 13 -19 26 -16 11 3 20 9 20 14 0 5 8 9 18 9 12 1 8 6 -12 16 -22 12 -30
13 -36 4 -6 -9 -12 -9 -26 -1 -16 9 -16 10 -3 11 9 0 23 8 30 17 12 15 12 16
-6 9 -11 -5 -32 -12 -46 -16 -14 -4 -37 -13 -50 -20 -14 -7 -6 5 21 30 46 43
46 43 -22 24 -10 -3 -18 -1 -18 4 0 9 66 32 94 32 28 0 9 17 -24 22 -21 3 -34
0 -40 -11 -8 -14 -9 -14 -10 2 0 12 -8 17 -26 17 -21 0 -24 4 -19 20 5 15 2
20 -12 20 -11 0 -24 -5 -31 -12 -9 -9 -12 -9 -12 0 0 6 -7 9 -15 6 -18 -7 -20
12 -2 19 12 5 -2 21 -28 30 -5 3 4 17 20 32 17 16 31 32 31 37 1 4 2 15 3 24
1 11 7 15 20 11 12 -3 27 3 37 14 16 18 16 19 -2 19 -10 0 -32 -9 -49 -20 -32
-21 -50 -26 -40 -11 9 16 -15 24 -31 11 -12 -10 -14 -9 -13 6 5 46 -1 56 -24
52 -15 -3 -28 3 -40 18 -16 22 -16 22 14 33 28 10 30 13 18 27 -12 15 -11 16
11 9 23 -7 24 -7 10 10 -14 17 -13 18 5 12 14 -5 12 -1 -7 14 -40 29 -35 42 6
18 33 -19 35 -19 34 -2 -1 10 2 28 6 41 7 20 4 22 -26 22 -18 0 -40 5 -48 10
-11 7 -6 8 16 4 37 -7 49 6 29 32 -12 17 -16 17 -37 5 -21 -13 -22 -13 -9 3
21 25 8 30 -81 36 l-80 5 8 -65z"/>
<path d="M1381 2861 c-8 -5 -20 -7 -28 -4 -7 3 -19 0 -27 -6 -7 -6 -22 -8 -32
-5 -11 4 -16 3 -11 -1 4 -5 15 -9 25 -10 9 -1 51 -6 92 -10 63 -7 71 -9 50
-18 -24 -10 -24 -10 15 -23 22 -7 58 -13 80 -13 30 -1 36 -4 25 -11 -13 -8
-13 -10 2 -10 9 0 20 -4 23 -10 4 -6 -6 -8 -25 -6 -17 2 -33 0 -35 -4 -6 -9
62 -23 74 -15 13 7 43 -24 35 -37 -4 -7 -2 -8 5 -4 6 4 8 12 5 18 -4 7 -2 8 4
4 6 -4 9 -13 6 -21 -8 -19 29 -38 44 -23 9 9 -4 27 -52 74 -36 35 -73 63 -83
63 -28 0 -91 19 -68 20 38 3 -13 23 -68 27 -47 3 -80 14 -44 14 10 0 17 5 17
10 0 12 -10 13 -29 1z"/>
<path d="M4168 2804 c-16 -8 -28 -20 -28 -27 0 -8 -3 -7 -9 2 -8 12 -14 12
-40 2 -34 -15 -61 -41 -42 -41 7 0 9 -6 5 -12 -4 -7 6 -1 23 15 27 25 33 27
69 18 21 -5 30 -9 18 -10 -11 -1 -40 -18 -64 -38 -24 -21 -41 -33 -37 -27 9
16 -19 26 -31 11 -25 -32 -25 -40 -3 -34 18 4 20 3 10 -9 -20 -25 41 3 63 28
13 16 21 19 29 11 8 -8 5 -15 -12 -23 -13 -7 -25 -13 -26 -14 -1 -1 -9 -19
-18 -39 -15 -36 -15 -37 4 -25 11 6 24 22 30 34 5 12 19 25 29 29 22 6 59 55
42 55 -20 0 43 51 88 70 24 10 31 26 7 16 -8 -3 -21 1 -29 9 -16 17 -41 20
-31 5 3 -5 2 -10 -4 -10 -5 0 -11 4 -13 9 -1 5 -15 3 -30 -5z"/>
<path d="M3321 2766 c-1 -10 -6 -16 -13 -13 -10 3 -13 -13 -12 -62 0 -36 4
-74 9 -84 5 -12 2 -22 -11 -32 -18 -14 -17 -16 15 -19 8 0 16 -7 19 -15 3 -9
0 -11 -8 -6 -10 6 -12 4 -7 -9 4 -10 7 -26 7 -37 0 -12 5 -16 15 -13 9 4 15 0
15 -9 0 -9 6 -22 13 -29 6 -7 13 -21 13 -31 2 -15 -1 -16 -13 -5 -8 7 -19 23
-24 35 -5 13 -14 22 -21 21 -8 -2 -14 9 -16 28 -2 18 -12 40 -23 50 -10 9 -19
23 -19 31 0 8 -5 11 -11 8 -6 -4 -8 -14 -5 -22 3 -8 1 -11 -4 -8 -6 3 -10 2
-10 -4 0 -19 -29 1 -33 22 -2 16 -6 11 -12 -17 -6 -32 -5 -42 9 -52 12 -8 16
-19 11 -33 -9 -29 -25 -26 -25 4 0 14 -5 25 -11 25 -5 0 -7 5 -4 10 11 17 -17
11 -30 -7 -11 -15 -14 -14 -29 15 -18 36 -19 42 -7 42 5 0 12 -12 16 -27 7
-26 8 -26 15 -8 5 13 3 23 -6 28 -8 4 -14 19 -14 32 0 14 -5 25 -11 25 -6 0
-9 -6 -6 -14 3 -8 0 -22 -8 -32 -12 -17 -15 -15 -30 24 -9 23 -21 39 -27 36
-5 -4 -5 -10 1 -17 11 -14 3 -67 -10 -67 -5 0 -6 7 -3 15 4 8 2 15 -4 15 -6 0
-13 -6 -15 -12 -4 -9 -6 -10 -6 -1 -1 6 5 18 12 25 13 14 17 82 5 94 -5 4 -8
-12 -8 -35 0 -23 -4 -40 -9 -37 -26 16 -37 -185 -14 -253 8 -25 17 -54 19 -66
6 -42 10 -55 18 -62 5 -4 6 3 3 17 -3 14 -9 46 -12 73 -4 26 -11 47 -16 47
-12 0 -11 37 1 45 6 3 10 -1 10 -10 0 -9 4 -14 9 -10 6 3 7 28 4 56 l-6 50 32
-31 c17 -17 34 -44 38 -58 6 -25 8 -23 15 18 5 27 4 48 -2 54 -13 13 -13 26 0
26 6 0 10 -7 10 -16 0 -8 4 -12 10 -9 6 3 8 -21 7 -64 -2 -39 1 -65 5 -58 4 6
8 26 8 44 0 17 3 40 7 50 6 14 9 8 14 -22 l6 -40 2 45 c2 40 3 42 12 21 5 -14
8 -30 5 -38 -3 -7 -1 -15 4 -18 16 -10 11 -28 -6 -21 -10 4 -13 2 -8 -6 4 -7
8 -64 8 -127 1 -88 4 -115 15 -119 10 -3 12 2 7 22 -4 17 -2 26 6 26 9 0 9 3
0 12 -7 7 -12 19 -11 27 0 11 2 12 6 4 2 -7 9 -13 15 -13 6 0 8 7 4 15 -8 21
10 19 19 -2 4 -10 7 -31 6 -48 -1 -16 3 -43 8 -60 10 -33 10 -36 15 58 5 76
14 45 12 -42 -1 -74 0 -85 10 -63 6 15 9 33 6 40 -3 8 1 10 12 6 19 -7 19 -9
1 -59 -16 -47 -19 -68 -6 -61 5 3 14 -8 20 -26 15 -43 21 -32 11 20 -4 23 -4
44 -1 46 4 3 8 28 9 57 1 29 7 58 12 63 16 16 20 2 10 -35 -19 -70 -12 -169
12 -169 5 0 6 -17 3 -37 -5 -33 -5 -35 6 -18 25 40 48 46 41 10 -2 -14 -8 -25
-13 -25 -5 0 -6 -7 -3 -15 5 -11 11 -12 25 -4 10 5 19 7 19 3 0 -16 -24 -90
-33 -102 -5 -7 -7 -16 -3 -19 9 -10 25 15 33 50 6 29 23 48 23 25 0 -7 -4 -30
-9 -51 l-9 -38 24 15 c13 9 26 16 28 16 8 0 -14 -54 -25 -60 -5 -4 -10 -18
-11 -32 -1 -15 -6 -24 -10 -22 -9 6 -10 -31 -2 -63 5 -19 8 -20 20 -8 8 7 14
22 15 32 1 13 3 11 9 -7 4 -14 9 -20 10 -15 1 6 3 22 5 37 6 48 16 69 28 62 7
-4 9 -3 4 1 -4 5 1 18 10 29 16 18 16 19 1 8 -16 -12 -17 -10 -11 25 3 21 12
44 21 51 9 6 11 12 5 12 -6 0 -13 7 -16 14 -4 10 -1 13 9 9 10 -4 14 2 14 21
0 32 -14 33 -34 4 -9 -12 -16 -18 -16 -12 0 5 5 15 12 22 9 9 7 12 -13 12 -18
0 -21 2 -9 9 8 6 17 8 21 6 3 -3 15 5 25 17 19 20 19 21 -2 14 -19 -6 -21 -3
-18 21 2 16 1 20 -2 11 -3 -10 -10 -18 -16 -18 -6 0 -7 7 -2 18 4 9 8 33 9 52
2 19 8 48 14 63 18 45 12 55 -9 17 -24 -43 -25 -34 -4 36 11 39 12 58 5 73 -6
11 -8 28 -5 38 5 17 5 17 -6 -1 -9 -13 -9 -24 -1 -42 6 -15 7 -24 1 -24 -6 0
-10 6 -10 14 0 7 -7 19 -15 26 -16 13 -19 3 -15 -47 1 -13 -3 -23 -9 -23 -6 0
-12 -12 -12 -27 -1 -17 -5 -7 -11 25 -5 29 -13 50 -17 47 -5 -2 -6 6 -4 19 3
14 0 32 -6 43 -12 20 -10 25 -16 -81 -1 -26 -7 -51 -11 -55 -5 -3 -15 -19 -22
-35 -7 -16 -15 -26 -17 -24 -3 3 1 18 9 34 23 48 27 81 13 96 -8 7 -12 19 -9
26 2 6 -1 12 -7 12 -6 0 -11 5 -11 11 0 5 5 7 10 4 6 -3 10 4 10 16 0 17 -3
19 -14 10 -11 -9 -15 -9 -19 1 -3 7 -6 2 -6 -11 -1 -19 -4 -21 -15 -12 -11 10
-15 8 -19 -6 -2 -10 -5 -4 -5 12 0 17 -3 41 -7 55 -7 24 -7 24 8 5 22 -29 31
-12 13 24 -10 18 -12 32 -6 36 6 3 1 15 -10 27 -11 12 -20 26 -20 32 0 5 7 1
15 -10 8 -11 15 -14 15 -6 0 25 20 11 20 -15 0 -21 3 -24 12 -15 18 18 27 14
20 -10 -4 -17 -2 -20 11 -15 10 4 17 0 20 -11 4 -13 5 -13 6 4 0 11 -4 25 -11
32 -9 9 -8 16 6 31 9 10 16 22 14 27 -1 5 5 43 14 84 18 83 21 147 7 156 -5 3
-9 0 -9 -5 0 -6 -4 -11 -9 -11 -12 0 -34 57 -27 68 3 6 -1 12 -8 15 -10 4 -16
-2 -19 -16 -4 -24 -7 -18 -25 43 -5 19 -10 27 -11 16z"/>
<path d="M1495 2741 c-3 -6 -20 -11 -36 -11 -17 0 -28 -4 -24 -10 3 -6 -1 -7
-10 -4 -20 8 -65 -4 -65 -17 0 -7 9 -9 21 -6 16 4 18 3 9 -8 -8 -10 -4 -15 20
-23 16 -6 30 -16 30 -21 0 -6 9 -11 19 -11 11 0 23 -4 26 -10 3 -5 1 -10 -6
-10 -7 0 2 -15 20 -34 40 -41 77 -40 39 1 -19 21 -12 19 35 -11 31 -20 57 -33
57 -28 0 5 -10 14 -22 20 -13 6 -17 11 -9 11 10 1 7 9 -10 27 -22 25 -22 26
-4 22 11 -3 29 -9 40 -14 14 -5 9 4 -15 29 l-35 37 -28 -33 c-18 -19 -23 -22
-13 -7 22 34 20 41 -10 36 -14 -3 -33 -2 -42 2 -14 5 -12 7 8 13 21 6 19 7
-15 9 -22 1 -33 4 -25 7 8 4 20 12 27 19 7 7 18 14 25 17 7 2 10 7 7 11 -4 4
-10 3 -14 -3z"/>
<path d="M2229 2704 c-7 -9 -13 -26 -14 -38 0 -11 -5 -20 -11 -19 -19 3 -24
-90 -9 -162 8 -37 17 -70 19 -72 2 -3 4 21 4 52 0 38 4 60 13 66 21 13 22 4 4
-32 -15 -29 -15 -31 -1 -26 9 4 16 2 16 -4 0 -6 5 -7 10 -4 6 3 10 22 10 42 0
48 7 39 14 -17 3 -25 8 -55 12 -68 4 -14 0 -38 -11 -62 -10 -21 -15 -46 -11
-55 4 -10 2 -14 -5 -9 -7 4 -10 2 -8 -5 8 -24 24 -16 27 13 2 16 15 46 28 65
26 39 30 61 13 78 -8 8 -8 13 0 17 6 4 11 0 11 -8 0 -19 20 -22 21 -3 0 6 5 1
10 -12 6 -16 14 -21 26 -17 16 6 16 6 0 -11 -9 -11 -14 -27 -11 -40 3 -11 0
-24 -6 -28 -9 -5 -10 -1 -6 16 6 21 5 22 -6 8 -7 -8 -21 -18 -30 -22 -9 -3
-22 -16 -29 -29 l-12 -23 22 20 22 19 -6 -29 c-12 -55 -17 -62 -25 -35 l-7 25
-13 -27 c-17 -36 -23 -35 -39 7 -9 25 -9 40 -2 54 6 11 11 26 10 33 0 7 -7 -2
-15 -20 -9 -20 -12 -43 -8 -55 4 -12 8 -33 8 -46 1 -29 32 -37 45 -13 11 19
16 16 25 -15 5 -15 3 -23 -4 -23 -7 0 -10 -7 -6 -15 3 -8 1 -15 -4 -15 -6 0
-10 5 -10 11 0 6 -7 17 -15 25 -13 14 -16 14 -21 -1 -11 -27 7 -177 23 -201 8
-13 12 -27 10 -32 -3 -4 -1 -14 4 -22 8 -11 9 -2 4 30 -11 72 -6 125 10 108 3
-2 6 -19 8 -36 2 -18 7 -35 10 -39 4 -3 4 -17 1 -29 -4 -14 -2 -24 4 -24 16 0
20 21 15 70 -4 30 0 58 12 85 10 22 19 56 22 75 4 33 18 60 32 60 4 0 5 -16 3
-35 -3 -27 -1 -35 12 -35 9 0 16 -6 16 -13 0 -15 42 -18 52 -3 13 18 8 90 -7
116 -14 25 -15 25 -10 -10 4 -31 4 -32 -4 -8 -18 55 17 238 46 238 7 0 13 8
13 19 0 10 3 34 6 52 5 32 5 33 -10 15 -9 -11 -16 -34 -16 -50 -1 -29 -1 -30
-15 -12 -10 13 -15 15 -15 6 0 -7 -3 -11 -6 -8 -3 4 2 21 11 38 9 18 12 29 6
26 -7 -4 -10 6 -9 29 1 19 -2 38 -5 42 -4 3 -7 -15 -7 -41 0 -29 -4 -45 -10
-41 -6 3 -15 -6 -20 -22 -22 -61 -30 -70 -24 -26 7 50 -3 93 -17 72 -5 -8 -6
-22 -3 -31 7 -22 0 -23 -20 -2 -15 14 -16 13 -16 -13 0 -23 -18 -68 -21 -53
-5 28 -5 60 2 95 4 23 4 55 0 71 l-8 29 -7 -37 c-4 -21 -12 -40 -17 -44 -7 -4
-9 1 -4 15 4 14 1 31 -9 46 -9 13 -16 31 -16 40 0 18 -11 19 -29 3 -11 -10
-13 -10 -7 0 10 17 1 15 -15 -4z"/>
<path d="M1945 2652 c-3 -11 -2 -27 1 -37 5 -13 4 -16 -4 -11 -9 5 -9 0 -2
-20 8 -20 8 -30 -1 -38 -9 -8 -10 -8 -5 1 3 6 2 15 -4 18 -6 4 -10 3 -9 -2 1
-4 1 -10 0 -13 -9 -26 -5 -111 6 -132 15 -31 27 -38 19 -10 -8 24 17 103 30
94 13 -9 27 -45 15 -37 -21 12 -39 -24 -34 -67 6 -48 8 -51 28 -54 18 -3 18 1
4 27 -6 13 -7 25 -1 32 5 7 14 26 21 42 l11 30 -5 -30 c-2 -16 -7 -41 -10 -55
-6 -25 -6 -25 18 4 42 48 43 136 2 136 -8 0 -14 5 -12 11 1 6 -4 14 -12 17 -8
2 -11 1 -9 -4 3 -5 2 -18 -3 -29 -6 -17 -8 -17 -8 -2 -1 9 -5 17 -10 17 -17 0
-20 55 -4 79 10 15 11 21 2 16 -9 -6 -11 -3 -6 8 3 9 2 19 -3 22 -5 3 -11 -3
-15 -13z"/>
<path d="M3571 2648 c1 -13 -1 -30 -4 -38 -18 -49 -13 -92 13 -110 4 -3 3 -16
-2 -30 -10 -24 -11 -23 -22 19 -6 25 -17 46 -23 49 -18 5 -16 -21 4 -63 9 -19
13 -38 9 -42 -10 -11 -25 17 -19 36 4 14 3 14 -6 1 -9 -13 -11 -13 -12 0 -5
47 -7 58 -14 70 -5 9 -4 11 3 6 8 -5 12 4 12 29 0 25 -4 34 -12 29 -8 -5 -9
-1 -4 12 6 15 5 16 -5 7 -10 -10 -10 -18 -1 -38 6 -14 8 -25 3 -25 -5 0 -13
12 -19 28 -8 26 -9 24 -16 -22 -6 -40 -5 -51 8 -58 9 -5 16 -14 16 -19 0 -6
-5 -7 -11 -3 -8 4 -8 0 0 -15 7 -11 17 -21 23 -21 23 0 58 -51 58 -86 0 -18 4
-34 9 -34 5 0 8 8 6 18 -2 9 -6 32 -9 51 -6 33 -5 33 12 18 10 -10 21 -17 24
-17 4 0 9 23 13 50 4 28 11 48 16 44 5 -3 6 2 3 10 -3 9 -2 16 2 16 12 0 8
100 -4 112 -6 6 -8 -12 -6 -44 l4 -53 -17 68 c-16 64 -37 93 -32 45z"/>
<path d="M1395 2584 c-22 -6 -39 -16 -38 -22 2 -6 -4 -9 -12 -6 -8 4 -12 11
-8 17 4 6 -4 8 -22 3 -15 -4 -54 -9 -87 -11 -65 -4 -92 -15 -38 -15 18 0 30
-3 26 -7 -4 -4 -43 -6 -86 -4 -78 3 -80 2 -90 -24 -14 -36 -14 -36 25 -19 41
17 59 18 49 3 -5 -8 -1 -8 14 0 11 6 34 11 50 11 16 0 54 13 85 28 53 27 56
28 71 10 17 -20 62 -26 50 -6 -5 7 -3 8 5 4 7 -5 10 -10 7 -13 -4 -5 26 -29
73 -57 22 -14 3 35 -27 67 -14 15 -21 27 -16 27 6 0 21 -11 34 -25 29 -31 36
-26 16 13 -19 37 -31 41 -81 26z"/>
<path d="M3819 2533 c-1 -32 0 -68 1 -80 1 -12 -4 -32 -10 -44 -7 -13 -8 -19
-2 -15 6 3 14 1 17 -4 12 -19 34 22 36 65 1 35 2 37 9 14 8 -28 -1 -105 -13
-101 -18 6 -26 1 -20 -14 5 -13 8 -13 15 -2 8 10 9 10 6 -1 -7 -26 -25 -23
-33 6 -4 15 -10 22 -12 15 -3 -7 2 -24 11 -37 18 -28 20 -39 6 -30 -5 3 -10
-1 -10 -9 0 -9 5 -16 11 -16 8 0 10 -17 5 -55 -4 -38 -3 -55 5 -55 25 0 34 31
29 96 -4 46 -2 68 7 76 7 6 13 24 13 40 0 24 2 27 14 16 10 -10 11 -18 2 -38
-6 -14 -15 -29 -21 -33 -6 -5 -2 -6 8 -3 10 3 21 6 23 6 2 0 4 9 4 19 0 11 12
34 26 51 15 17 24 34 20 37 -3 4 -6 1 -6 -6 0 -7 -4 -10 -9 -6 -6 3 -1 21 11
41 11 19 18 37 16 40 -10 10 -40 -10 -49 -32 -4 -13 -14 -24 -21 -24 -9 0 -10
3 -2 8 15 9 28 52 16 52 -5 0 -14 -10 -20 -22 -8 -18 -11 -19 -11 -6 -1 9 4
20 10 23 5 4 8 12 6 18 -2 7 0 20 5 31 7 14 7 16 -2 11 -7 -4 -18 -21 -26 -39
l-15 -31 6 33 c4 20 3 32 -4 32 -6 0 -12 -7 -12 -15 -1 -8 -3 -19 -4 -25 -1
-5 -3 -14 -4 -20 0 -5 -5 -10 -10 -10 -6 0 -6 12 0 32 6 22 5 34 -2 39 -7 4
-8 12 -5 18 4 6 2 11 -3 11 -7 0 -11 -24 -12 -57z"/>
<path d="M1814 2540 c8 -22 24 -130 19 -130 -2 0 -9 14 -14 30 -6 17 -15 30
-20 30 -5 0 -9 5 -9 11 0 5 5 7 10 4 13 -8 13 25 0 45 -8 12 -10 10 -10 -9 0
-24 0 -24 -16 -5 -15 18 -15 17 -10 -14 4 -20 2 -31 -4 -27 -12 7 -14 -8 -2
-19 4 -4 7 -18 7 -31 1 -28 -17 -23 -39 11 -10 14 -22 21 -31 17 -11 -3 -31
11 -60 43 -27 29 -45 42 -45 33 0 -18 47 -85 96 -139 18 -19 42 -46 54 -60 14
-17 23 -21 26 -12 10 23 24 12 25 -20 l1 -33 10 35 c5 19 8 58 5 85 -4 32 -2
43 3 30 5 -11 9 -39 9 -63 1 -26 5 -41 11 -37 6 3 10 0 10 -7 0 -10 2 -10 8 0
8 12 22 -6 35 -48 3 -8 6 0 6 18 1 20 -3 31 -9 27 -5 -3 -10 1 -10 11 0 14 2
14 16 3 13 -10 17 -10 24 1 6 10 9 9 13 -6 3 -10 5 4 4 31 -2 37 -6 50 -17 50
-9 0 -15 -9 -14 -22 0 -13 -3 -23 -8 -23 -11 0 -10 38 2 45 16 10 12 35 -11
63 l-22 27 6 -38 c5 -30 3 -35 -7 -25 -7 7 -16 35 -19 63 -4 27 -12 54 -18 60
-7 7 -9 5 -5 -5z"/>
<path d="M1644 2396 c5 -15 2 -17 -19 -12 -23 6 -24 4 -21 -24 5 -42 12 -46
20 -13 6 20 10 23 16 13 5 -8 3 -19 -6 -27 -8 -8 -14 -26 -14 -40 0 -26 -9
-27 -14 -1 -3 15 -35 78 -40 78 -7 0 6 -44 17 -58 21 -27 -5 -24 -34 4 -30 28
-31 28 -24 5 5 -16 4 -21 -4 -17 -7 4 -9 1 -5 -8 4 -11 0 -13 -18 -9 l-23 5
25 -21 c28 -23 40 -26 40 -10 0 5 -4 7 -10 4 -5 -3 -10 -2 -10 4 0 23 17 17
39 -15 22 -31 51 -50 35 -21 -4 6 7 -3 24 -20 18 -18 34 -33 37 -33 13 0 2 32
-17 51 -13 12 -17 18 -9 14 11 -6 13 -4 8 8 -3 10 -4 17 -1 17 2 0 9 -12 14
-26 11 -28 30 -24 30 8 0 14 5 18 16 14 9 -3 18 -6 20 -6 2 0 4 -8 4 -17 0
-15 -2 -14 -15 3 -13 17 -14 18 -15 1 0 -10 7 -20 15 -23 8 -4 15 -12 15 -20
0 -8 5 -14 11 -14 5 0 9 8 8 18 -3 30 1 43 10 38 5 -3 9 5 9 18 0 15 -22 46
-61 87 -33 35 -57 56 -53 45z"/>
<path d="M2713 2388 c1 -17 -4 -24 -20 -26 -13 -2 -23 -7 -23 -12 0 -5 8 -6
17 -3 13 5 15 2 10 -11 -4 -10 -7 -20 -7 -22 0 -3 -4 -2 -10 1 -6 4 -10 -6
-10 -22 0 -22 -2 -25 -10 -13 -8 11 -9 9 -5 -10 3 -14 2 -46 -3 -73 -5 -26 -6
-50 -2 -52 11 -7 21 23 27 80 4 44 28 103 38 93 2 -2 -2 -31 -9 -65 -10 -51
-10 -66 1 -85 13 -22 14 -21 9 17 -2 22 -2 32 0 23 3 -10 9 -18 13 -18 5 0 8
-13 7 -29 -1 -16 -5 -27 -10 -23 -5 3 -6 -9 -3 -28 4 -18 7 -40 8 -49 0 -9 6
1 12 23 l12 38 15 -48 c11 -37 15 -43 18 -26 2 13 9 21 15 19 7 -2 11 -13 9
-23 -1 -10 -4 -63 -6 -117 -3 -79 -1 -101 12 -117 13 -14 21 -17 32 -10 13 8
13 13 -3 41 -10 18 -15 34 -12 37 3 3 5 1 5 -5 0 -14 42 -11 47 3 2 6 -10 23
-27 37 -32 27 -36 48 -25 110 5 25 4 37 -4 37 -7 0 -9 13 -5 39 4 24 2 41 -5
45 -14 9 -14 36 0 36 5 0 7 -4 4 -10 -3 -5 -2 -10 3 -10 5 0 7 26 6 58 -2 31
-3 61 -4 66 0 5 -3 6 -7 3 -3 -4 -12 -2 -19 4 -9 8 -11 6 -8 -8 3 -11 -4 -27
-16 -38 l-21 -19 6 29 c4 17 11 43 16 59 12 38 12 40 -5 24 -7 -8 -17 -28 -20
-45 -5 -22 -12 -30 -22 -26 -8 3 -14 12 -14 20 0 8 5 11 11 7 8 -4 9 1 4 16
-4 14 -3 20 3 16 5 -3 12 3 15 14 3 11 1 18 -3 15 -4 -3 -13 9 -19 25 -12 35
-22 39 -18 8z"/>
<path d="M4058 2391 c-10 -10 -18 -24 -18 -32 0 -11 -2 -11 -9 -1 -10 16 -23
1 -39 -43 -9 -26 -10 -22 -7 28 3 42 1 57 -8 54 -18 -6 -20 -69 -3 -124 11
-38 15 -42 15 -20 1 30 21 38 21 8 0 -11 5 -23 10 -26 6 -3 10 -15 10 -26 0
-11 4 -18 9 -14 5 3 12 -3 14 -12 3 -10 5 -5 6 12 0 17 10 48 21 70 22 43 24
39 11 -18 -7 -27 -5 -48 4 -69 l13 -31 17 26 c9 15 15 32 12 39 -4 8 -8 5 -12
-9 -4 -13 -11 -20 -16 -17 -19 11 -8 54 23 88 17 20 32 44 33 55 1 18 1 18
-29 0 -35 -21 -46 -23 -46 -9 0 6 7 10 15 10 13 0 42 38 33 44 -26 17 -58 36
-60 35 -2 0 -11 -8 -20 -18z"/>
<path d="M2193 2199 c5 -53 4 -59 -7 -43 -8 10 -12 24 -9 31 3 7 -2 13 -10 13
-10 0 -15 -12 -15 -41 -1 -23 -3 -44 -6 -47 -3 -3 -6 16 -6 42 0 29 -4 45 -10
41 -13 -8 -13 -61 1 -87 6 -11 9 -22 6 -24 -5 -5 -45 77 -60 126 -4 12 -6 11
-13 -4 -5 -13 -3 -21 4 -24 7 -2 12 -18 12 -35 0 -18 9 -43 19 -56 10 -13 16
-33 14 -45 -4 -17 -3 -18 7 -6 10 13 11 13 9 0 -1 -8 1 -23 5 -32 5 -10 6 -23
4 -30 -3 -7 -20 17 -37 55 -18 37 -35 67 -36 67 -2 0 -3 -24 -3 -52 1 -29 3
-43 6 -30 4 27 22 29 22 2 0 -27 -3 -36 -12 -33 -5 2 -8 -2 -8 -7 0 -5 5 -10
10 -10 6 0 8 -11 4 -25 -4 -15 -2 -25 5 -25 6 0 11 -5 11 -11 0 -6 -7 -8 -16
-5 -15 6 -15 4 0 -18 9 -14 16 -31 16 -38 0 -11 -2 -10 -9 0 -6 10 -10 10 -21
-3 -10 -12 -10 -15 0 -15 8 0 11 -3 8 -6 -4 -3 -19 2 -35 12 l-28 18 30 -34
c28 -31 28 -32 7 -27 -12 3 -20 1 -16 -4 3 -5 12 -9 20 -9 8 0 14 -7 14 -15 0
-8 6 -12 14 -9 8 3 17 1 21 -5 4 -7 -1 -8 -12 -4 -16 6 -16 4 2 -17 l20 -24
-40 23 -40 23 26 -24 c34 -30 52 -65 51 -99 0 -15 6 -33 14 -40 8 -6 14 -24
14 -40 0 -15 5 -31 10 -34 6 -3 10 -11 10 -16 0 -6 -5 -7 -11 -3 -7 4 -7 -2 1
-17 16 -31 25 -39 17 -16 -4 11 -1 25 8 34 9 9 13 24 10 37 -5 19 -5 19 6 3
10 -17 15 -32 19 -62 1 -5 5 1 11 13 5 13 6 29 2 34 -3 7 -1 8 5 4 7 -4 12
-13 12 -21 0 -8 5 -17 11 -21 8 -4 9 4 4 27 -4 19 -11 36 -16 37 -5 2 -9 15
-9 29 0 19 4 24 16 19 11 -4 14 -1 12 12 -2 9 -9 17 -16 17 -13 0 -32 23 -32
38 0 5 6 5 13 1 7 -4 9 -3 4 2 -5 5 -14 9 -19 9 -6 0 -19 15 -29 33 -16 27
-16 32 -4 32 8 0 15 -4 15 -8 0 -5 7 -17 15 -28 12 -15 14 -15 9 -2 -10 29 6
41 27 22 21 -19 25 -8 6 17 -7 9 -18 14 -26 11 -9 -3 -11 0 -6 7 4 7 7 28 7
47 0 39 12 45 23 12 7 -22 8 -21 12 7 3 17 9 34 14 40 12 12 12 45 -1 45 -5 0
-8 6 -6 13 1 6 1 9 -1 5 -9 -16 -18 -7 -18 17 0 16 5 23 13 20 14 -5 16 9 3
33 -5 10 -12 38 -16 62 -3 25 -13 70 -21 101 -8 31 -14 66 -14 78 0 12 -5 21
-11 21 -7 0 -9 -20 -6 -61z"/>
<path d="M2600 2209 c0 -11 -4 -17 -10 -14 -6 4 -10 -7 -10 -25 0 -17 -7 -46
-15 -66 -8 -19 -12 -41 -8 -49 3 -9 0 -22 -6 -29 -9 -11 -9 -15 1 -18 10 -4
10 -10 -2 -33 -8 -15 -13 -38 -12 -51 2 -13 -2 -24 -8 -24 -6 0 -8 -5 -4 -11
4 -7 14 0 26 18 l19 28 -6 -30 c-4 -16 -16 -54 -27 -83 -23 -60 -18 -81 9 -33
10 17 22 31 26 31 5 0 6 -3 4 -7 -30 -52 -60 -139 -64 -187 -2 -33 -7 -65 -9
-70 -3 -6 6 2 20 19 15 17 28 48 32 75 4 25 10 50 14 55 4 6 11 36 14 67 4 32
12 60 17 63 5 4 9 16 8 28 l0 22 -9 -22 c-14 -35 -20 -27 -9 12 6 19 8 39 5
44 -3 4 1 17 9 27 8 10 15 29 15 42 0 12 4 22 9 22 5 0 4 11 -2 24 -8 17 -14
21 -19 13 -5 -7 -5 3 -2 21 4 19 2 32 -4 32 -7 0 -5 20 4 58 16 70 16 72 4 72
-5 0 -10 -9 -10 -21z"/>
<path d="M1918 2198 c-7 -35 2 -89 13 -82 5 3 9 1 9 -5 0 -9 -20 -27 -20 -19
0 2 -9 28 -20 58 -11 30 -18 42 -15 25 3 -16 7 -46 9 -65 2 -19 1 -24 -1 -10
-3 13 -16 38 -31 55 l-25 30 6 -31 c5 -28 4 -31 -13 -27 -15 4 -20 0 -20 -13
0 -26 10 -39 46 -57 17 -9 36 -23 43 -31 18 -22 30 -20 41 7 9 19 9 18 5 -9
-4 -20 -1 -35 8 -43 12 -9 14 -4 11 31 -7 82 -12 113 -27 162 -12 44 -15 47
-19 24z"/>
<path d="M3091 2163 c0 -32 -5 -74 -10 -93 -15 -47 -14 -209 1 -251 6 -19 18
-38 26 -43 12 -7 12 -10 1 -17 -11 -6 -11 -11 -1 -21 9 -9 12 -9 12 3 0 12 2
12 11 -1 8 -11 9 -8 5 15 -3 17 -8 48 -11 70 -4 22 -10 60 -15 85 -14 70 -18
130 -9 124 5 -3 9 -11 9 -19 0 -8 5 -17 11 -21 15 -9 6 174 -10 204 -6 12 -14
22 -16 22 -3 0 -4 -26 -4 -57z"/>
<path d="M1433 2179 c4 -16 2 -19 -16 -13 -18 5 -20 4 -9 -7 6 -7 12 -25 12
-40 0 -15 5 -31 10 -34 6 -3 10 -15 10 -25 0 -10 6 -31 14 -47 8 -15 19 -41
26 -57 8 -22 14 -26 23 -17 8 8 7 18 -6 41 -17 29 -17 29 0 23 10 -4 23 -13
28 -20 6 -7 21 -14 35 -15 20 -2 25 1 23 17 -1 17 1 17 18 -5 21 -28 27 -14 6
15 -16 21 -41 11 -33 -14 5 -12 2 -11 -9 3 -8 11 -15 25 -15 30 0 6 5 4 10 -4
8 -13 10 -13 10 2 0 9 -8 21 -17 27 -13 7 -17 23 -18 65 0 33 -6 60 -14 68
-11 11 -13 9 -8 -10 4 -19 3 -21 -8 -12 -11 9 -13 3 -10 -34 2 -25 9 -54 15
-65 14 -27 -1 -27 -18 -1 -7 12 -17 18 -21 15 -10 -6 -23 20 -27 54 -2 18 0
21 8 13 20 -20 28 -13 17 15 -5 14 -8 32 -6 38 3 6 -4 12 -15 12 -15 2 -19 -3
-15 -18z"/>
<path d="M4850 2025 c-75 -54 -103 -68 -80 -40 9 10 9 15 1 15 -6 0 -11 -3
-12 -7 -3 -27 -9 -47 -18 -56 -6 -6 -11 -16 -11 -21 0 -6 5 -3 11 7 5 9 24 24
42 33 30 16 29 14 -16 -36 -26 -29 -47 -58 -47 -65 0 -7 -7 -18 -15 -25 -9 -7
-14 -15 -12 -17 7 -6 37 8 37 18 0 12 50 64 63 64 6 0 12 7 14 15 4 13 3 13
-7 0 -10 -13 -11 -13 -7 0 2 10 13 14 32 12 23 -3 27 -1 21 14 -6 14 -4 15 9
4 14 -12 20 -10 41 13 35 38 46 73 28 88 -11 9 -12 15 -3 25 17 21 10 17 -71
-41z"/>
<path d="M805 1982 c-5 -14 -7 -14 -16 -2 -7 11 -8 8 -4 -11 5 -19 2 -28 -9
-32 -9 -4 -16 -13 -16 -22 0 -8 -5 -15 -12 -15 -9 0 -9 -3 -1 -11 8 -8 17 -8
32 1 19 10 27 5 68 -35 53 -51 71 -58 47 -17 -14 22 -10 20 20 -10 21 -21 39
-38 42 -38 9 0 3 11 -28 47 -23 27 -25 31 -7 16 14 -13 29 -23 35 -23 12 -1
59 -36 60 -47 6 -34 18 -53 31 -49 8 3 12 2 9 -2 -6 -10 43 -86 51 -78 3 3 -4
18 -16 34 -32 45 -25 48 18 9 22 -20 59 -41 83 -48 40 -11 41 -13 18 -20 -24
-7 -23 -8 5 -6 19 1 29 7 27 15 -1 8 2 11 8 7 6 -3 7 -11 4 -17 -5 -7 -2 -9 8
-5 9 3 20 1 25 -4 7 -7 13 -4 17 8 4 9 4 14 0 10 -4 -4 -13 -2 -20 3 -6 6 -25
13 -40 15 -78 14 -94 18 -94 26 0 5 5 9 12 9 6 0 3 9 -7 20 -10 11 -26 20 -36
20 -10 0 -20 4 -24 10 -3 5 -11 7 -18 5 -7 -3 -23 5 -37 16 -24 20 -18 20 25
3 11 -5 13 -2 9 10 -4 10 -13 15 -21 12 -8 -4 -17 4 -23 19 -20 52 -111 165
-138 171 -15 3 -39 9 -54 14 -20 7 -28 5 -33 -8z"/>
<path d="M4847 1892 c-19 -16 -56 -50 -81 -75 -25 -26 -49 -47 -54 -47 -6 0
-12 -9 -15 -20 -6 -23 11 -27 19 -5 4 8 9 13 13 10 4 -2 25 14 47 36 56 59 84
72 48 23 -25 -35 -26 -37 -5 -19 l24 20 -6 -20 c-5 -15 -1 -13 16 8 22 26 45
38 31 16 -5 -9 1 -10 22 -4 16 4 38 9 49 10 11 1 20 8 20 16 0 8 4 17 10 21 5
4 6 10 2 14 -3 4 -13 1 -22 -6 -12 -10 -15 -10 -15 2 0 8 5 19 11 25 8 8 7 13
-2 18 -7 5 -17 1 -24 -8 -14 -19 -30 -23 -19 -5 4 7 3 8 -4 4 -7 -4 -12 -13
-12 -20 0 -7 -9 -21 -20 -31 -24 -22 -25 -14 -4 26 21 42 14 45 -29 11z"/>
<path d="M775 1871 c-3 -7 -15 -9 -26 -6 -26 9 -24 -13 3 -42 18 -20 20 -26 8
-33 -11 -7 -8 -16 15 -47 26 -34 26 -36 5 -18 -14 11 -30 26 -38 33 -21 19
-27 14 -9 -6 13 -15 14 -21 4 -31 -6 -7 -7 -11 -2 -9 6 1 21 -5 35 -14 14 -9
36 -19 50 -22 24 -7 25 -7 5 10 -20 16 -19 16 5 9 14 -5 30 -15 37 -24 6 -9
15 -12 19 -8 5 4 3 12 -4 16 -7 4 -12 14 -10 22 2 8 -4 13 -14 13 -10 -1 -16
2 -13 6 3 4 -9 13 -25 20 -31 13 -60 40 -42 40 6 0 12 -4 14 -9 2 -7 90 -57
123 -70 6 -2 1 7 -11 20 -11 13 -29 38 -39 54 -16 25 -16 28 -2 16 10 -8 17
-9 17 -3 0 6 -9 14 -20 17 -11 4 -17 11 -14 17 6 9 -22 35 -40 36 -5 0 -12 6
-16 12 -6 9 -9 9 -15 1z"/>
<path d="M3121 1629 c-1 -24 -39 -31 -52 -11 -8 13 -9 7 -3 -23 4 -22 6 -57 6
-78 -1 -22 2 -35 8 -32 5 3 12 -5 16 -19 3 -14 12 -30 18 -35 10 -9 11 -1 5
37 -10 67 -3 64 16 -7 12 -42 25 -65 42 -77 26 -17 25 -6 -4 28 -8 9 -16 33
-17 55 l-4 38 14 -32 c8 -18 16 -33 19 -33 7 0 -6 62 -18 84 -7 15 -6 18 6 13
11 -4 14 -2 10 9 -3 9 -12 12 -25 8 -16 -5 -19 -2 -15 13 3 10 0 32 -8 48 -8
17 -14 23 -14 14z"/>
<path d="M1774 1595 c11 -8 25 -15 32 -15 6 0 14 -7 18 -15 3 -8 14 -15 24
-15 10 0 27 -7 38 -16 18 -14 18 -15 -6 -8 -14 3 -49 17 -78 30 -69 31 -102
30 -37 -2 45 -21 41 -24 -15 -8 -20 5 -66 -13 -56 -23 3 -3 12 0 21 7 8 7 23
9 32 5 15 -5 12 -9 -16 -21 -38 -16 -77 -18 -85 -5 -8 12 -46 2 -43 -12 1 -6
-13 -15 -30 -20 -18 -5 -33 -14 -33 -20 0 -5 8 -7 18 -3 14 5 14 4 -2 -7 -10
-7 -34 -27 -54 -44 -19 -18 -42 -33 -51 -33 -13 0 -13 -2 -3 -9 11 -7 10 -9
-3 -15 -9 -3 -13 -10 -10 -16 3 -5 2 -10 -2 -10 -5 0 -13 -10 -18 -22 -6 -12
-17 -24 -25 -26 -13 -5 -13 -3 -1 12 12 15 11 16 -10 8 -12 -5 -25 -15 -27
-22 -3 -7 0 -10 7 -6 7 5 9 1 5 -9 -6 -14 -9 -14 -27 2 -21 18 -21 18 -4 -7 9
-14 22 -34 28 -45 10 -18 9 -17 -13 3 -13 12 -30 22 -37 22 -8 0 -2 -10 13
-21 15 -12 25 -24 21 -27 -3 -3 3 -15 13 -26 23 -25 37 -60 20 -50 -7 5 -9 -1
-4 -20 4 -17 2 -26 -5 -26 -8 0 -8 -4 1 -15 6 -8 9 -19 5 -25 -3 -5 -2 -10 3
-10 10 0 25 -37 23 -57 -1 -6 3 -14 8 -18 6 -3 8 -12 5 -20 -4 -8 1 -18 10
-21 9 -3 16 -11 16 -18 0 -7 14 -23 31 -36 16 -14 43 -37 60 -52 16 -15 29
-25 29 -23 0 3 16 -4 35 -15 53 -30 194 -50 285 -40 77 7 172 43 244 92 23 16
45 23 61 20 30 -5 31 -13 4 -38 -11 -10 -18 -26 -16 -35 3 -10 -2 -20 -11 -24
-13 -5 -14 -8 -3 -14 7 -5 11 -13 7 -19 -4 -6 2 -8 14 -5 12 3 19 12 18 21 -2
9 5 18 15 20 9 2 17 -1 17 -7 0 -6 -4 -11 -9 -11 -8 0 -21 -41 -26 -81 -1 -9
-5 -21 -9 -28 -4 -6 -1 -11 7 -11 18 0 30 27 16 35 -5 4 -7 10 -4 15 3 5 15 0
26 -11 11 -11 23 -17 28 -15 4 3 20 -8 36 -24 24 -25 25 -29 9 -28 -11 0 -27
-3 -37 -7 -15 -6 -17 -3 -13 19 4 21 1 26 -15 26 -22 0 -24 -11 -7 -28 9 -9 9
-12 1 -12 -7 0 -14 4 -17 8 -5 9 -42 9 -51 0 -3 -2 18 -12 47 -22 30 -10 54
-13 57 -7 4 5 17 3 31 -5 24 -14 22 -15 -33 -11 -39 2 -56 0 -54 -7 3 -6 10
-10 17 -8 7 1 23 -4 35 -12 13 -9 25 -11 27 -6 2 4 15 12 31 15 23 6 26 5 21
-9 -4 -10 -13 -15 -21 -12 -10 4 -11 1 -3 -14 7 -13 7 -21 -1 -25 -7 -5 -2
-16 12 -31 20 -21 21 -24 5 -24 -15 0 -16 -3 -6 -15 9 -11 9 -22 1 -46 -8 -24
-8 -30 2 -26 15 5 39 -18 29 -28 -4 -5 3 -6 15 -3 14 4 20 2 17 -6 -2 -6 20
-22 49 -34 30 -13 66 -34 80 -48 14 -13 33 -24 42 -24 8 0 15 -5 15 -11 0 -5
4 -8 9 -4 5 3 16 -4 25 -16 8 -12 19 -18 25 -14 6 3 11 -1 11 -10 0 -19 27
-63 54 -88 16 -14 39 -17 133 -17 105 0 115 2 120 19 3 13 10 18 21 13 14 -5
15 -3 4 10 -10 13 -10 17 3 22 9 3 13 11 9 17 -4 8 0 9 15 4 16 -5 20 -3 15 9
-4 10 -1 16 9 16 8 0 17 7 21 15 3 9 12 12 22 8 13 -5 15 -2 9 18 -6 20 -5 22
6 12 16 -15 33 -17 24 -3 -3 5 1 10 11 10 9 0 34 18 56 40 22 22 49 40 60 40
12 0 17 4 12 12 -5 8 -2 9 12 4 39 -16 54 -18 54 -7 0 7 -4 9 -10 6 -5 -3 -10
1 -10 9 0 9 7 16 15 16 9 0 30 7 47 16 24 12 28 18 17 25 -9 5 -17 3 -22 -6
-4 -8 -15 -15 -24 -15 -13 0 -14 3 -5 12 9 9 8 16 -6 31 -16 19 -16 19 6 13
13 -5 22 -3 22 3 0 6 -3 10 -7 9 -5 -1 -19 2 -32 6 -14 5 -27 4 -34 -3 -6 -6
-18 -11 -26 -11 -24 1 26 40 50 40 10 0 19 5 19 10 0 6 -11 8 -25 4 -28 -7
-39 -8 -73 -6 -19 2 -21 6 -16 28 5 19 3 25 -8 22 -14 -3 -18 2 -18 24 0 6 7
4 18 -5 10 -10 22 -14 25 -10 4 3 7 -4 7 -16 l0 -23 20 23 c17 21 19 21 13 4
-4 -14 5 -9 30 17 20 20 45 39 56 43 19 6 37 45 20 45 -5 0 -9 -6 -9 -14 0
-16 -69 -60 -78 -51 -4 3 0 10 8 15 8 5 15 15 15 22 0 7 8 12 18 10 14 -2 16
2 11 22 -4 17 -1 31 10 41 18 18 22 40 6 30 -15 -9 -12 5 5 22 9 8 14 20 12
26 -7 23 -23 15 -40 -23 -20 -43 -37 -52 -37 -21 0 25 -20 38 -31 20 -7 -11
-9 -11 -9 2 0 9 -7 23 -16 30 -15 12 -16 11 -10 -9 6 -17 3 -22 -9 -22 -9 0
-13 -5 -10 -11 4 -6 14 -8 22 -5 12 5 14 1 10 -15 -5 -20 -5 -20 15 -3 19 18
20 18 7 -9 -11 -24 -10 -29 10 -46 21 -18 22 -22 8 -41 -9 -13 -17 -17 -22
-11 -3 6 -1 11 5 11 6 0 8 5 5 10 -4 6 -11 8 -16 5 -5 -4 -9 1 -9 10 0 9 -5
13 -11 10 -6 -4 -9 -1 -8 6 3 21 -12 49 -26 49 -18 0 -24 -21 -14 -42 7 -13 5
-15 -11 -11 -24 6 -26 26 -5 47 22 22 19 26 -19 24 -28 -1 -35 -6 -39 -27 -3
-16 1 -33 10 -43 9 -10 13 -18 9 -18 -4 0 -2 -9 4 -20 9 -17 6 -25 -19 -50
l-29 -30 25 0 c25 0 26 -1 8 -20 -10 -11 -15 -26 -11 -36 5 -14 4 -15 -8 -5
-8 7 -14 18 -12 24 1 7 1 9 -1 5 -2 -4 -11 -4 -19 -1 -8 3 -14 0 -14 -6 0 -6
4 -11 9 -11 5 0 12 -8 16 -18 5 -14 4 -15 -6 -4 -7 6 -22 12 -33 12 -17 0 -18
2 -6 10 13 8 12 12 -4 27 -10 10 -16 13 -13 7 4 -6 0 -20 -9 -30 -11 -14 -14
-15 -13 -4 1 8 -1 23 -6 33 -7 17 -8 17 -21 0 -7 -10 -14 -24 -14 -32 0 -11 4
-9 15 5 8 10 14 15 14 9 0 -17 -25 -45 -33 -37 -4 4 -12 8 -17 8 -5 1 -14 2
-19 3 -6 0 -9 4 -8 9 2 4 -1 7 -7 7 -5 0 -9 -4 -7 -9 2 -5 -3 -4 -11 3 -12 9
-16 9 -20 -1 -3 -8 -6 -6 -6 6 -1 12 -6 16 -17 12 -8 -3 -12 -2 -9 4 14 23
-16 8 -31 -15 -13 -20 -19 -23 -30 -14 -11 9 -12 15 -3 28 6 9 -1 3 -15 -13
-15 -15 -30 -25 -33 -22 -4 3 -1 12 5 18 17 17 15 35 -4 42 -14 6 -15 4 -4
-10 9 -10 10 -18 4 -22 -6 -4 -16 -16 -22 -27 -6 -11 -12 -14 -12 -7 0 6 -9
12 -21 12 -14 0 -19 5 -16 14 4 9 -2 17 -14 21 -10 4 -19 11 -19 16 0 5 -9 9
-19 9 -11 0 -21 6 -24 13 -2 6 -8 9 -12 5 -4 -4 6 -18 21 -33 22 -19 24 -23 9
-18 -11 4 -25 13 -31 22 -10 12 -12 12 -21 -4 -6 -10 -13 -13 -17 -7 -3 5 1
15 9 22 8 7 15 19 15 27 0 11 7 14 21 10 16 -4 18 -3 8 9 -9 11 -9 14 1 14 7
0 10 8 7 20 -6 23 3 26 21 8 7 -7 12 -8 12 -2 0 11 -41 39 -52 36 -19 -5 -5
20 22 40 18 13 28 28 25 36 -3 8 0 21 7 30 12 14 10 14 -12 2 -17 -9 -25 -10
-28 -1 -2 6 -8 11 -13 11 -5 0 -4 -9 3 -20 7 -11 18 -20 25 -20 22 0 14 -14
-14 -27 -27 -13 -30 -12 -48 22 -3 6 -7 6 -10 -1 -3 -7 -15 -9 -27 -6 -14 3
-19 1 -14 -6 4 -7 2 -12 -3 -12 -6 0 -14 18 -17 40 -7 44 -18 50 -36 21 -6
-10 -17 -17 -24 -14 -7 2 -15 -5 -19 -16 -4 -12 -12 -18 -21 -14 -24 9 -35 39
-25 65 6 13 10 17 10 11 1 -18 21 -16 21 1 0 18 -25 38 -34 28 -4 -4 -12 -8
-17 -8 -5 -1 -12 -2 -16 -3 -4 0 2 -8 13 -16 10 -8 14 -15 8 -15 -13 0 -25
-50 -16 -65 10 -16 11 -35 2 -35 -5 0 -12 5 -15 10 -3 6 -1 10 5 10 6 0 8 5 5
10 -3 6 -16 10 -28 10 -18 0 -19 -2 -7 -10 8 -5 11 -10 5 -10 -5 0 -16 4 -23
8 -9 6 -5 12 14 21 22 10 25 16 22 44 -3 17 -8 40 -13 50 -6 13 -4 16 9 11 14
-5 15 -2 7 19 -8 21 -7 25 4 21 10 -4 12 0 8 17 -5 19 -3 21 15 17 21 -6 22
-4 15 35 -3 23 -12 47 -19 54 -11 12 -16 33 -29 128 -3 22 -14 69 -25 105 -11
36 -20 71 -20 78 0 8 -16 47 -36 88 -29 60 -33 78 -24 89 8 9 8 15 2 15 -5 0
-19 15 -31 33 -11 17 -21 26 -21 19 0 -7 -4 -11 -9 -7 -5 3 -13 0 -17 -6 -5
-8 -3 -9 6 -4 9 5 11 4 6 -3 -8 -13 -32 -2 -79 36 -16 12 -33 20 -38 16 -5 -3
-9 0 -9 5 0 6 -10 10 -22 9 -13 0 -59 18 -102 40 -79 42 -118 54 -82 27z m31
-261 c13 -8 27 -28 30 -44 18 -83 -88 -138 -142 -75 -31 36 -29 71 6 106 33
33 69 37 106 13z"/>
<path d="M3720 1554 c-27 -12 -32 -17 -20 -24 12 -8 10 -10 -8 -10 -25 0 -64
-23 -99 -57 -26 -27 -45 -30 -36 -5 6 14 4 15 -9 4 -10 -8 -14 -21 -10 -34 4
-17 2 -20 -12 -15 -10 4 -15 3 -11 -3 3 -6 1 -10 -5 -10 -7 0 -9 -8 -5 -21 5
-14 3 -19 -3 -15 -6 3 -18 -14 -28 -39 -9 -25 -21 -45 -25 -45 -5 0 -8 -3 -7
-7 3 -8 -10 -57 -38 -147 -9 -27 -18 -63 -20 -80 -7 -50 -9 -60 -16 -71 -10
-17 -13 -59 -4 -73 5 -8 4 -18 -3 -25 -19 -19 -14 -50 8 -44 14 3 17 0 14 -13
-3 -10 5 -27 19 -40 18 -18 19 -22 5 -16 -10 3 -23 6 -29 6 -6 0 -8 7 -5 15 4
8 2 17 -3 20 -22 14 -7 -41 15 -58 27 -19 45 -15 45 9 0 8 7 14 15 14 20 0 19
-6 -7 -30 -13 -12 -29 -18 -40 -14 -20 6 -24 -6 -7 -23 11 -11 2 -63 -11 -63
-4 0 -10 -11 -12 -25 -9 -42 29 -26 57 25 5 9 -1 7 -15 -5 -21 -18 -23 -18
-17 -2 4 10 7 22 7 27 0 4 10 10 22 13 27 7 42 -12 25 -32 -10 -12 -9 -13 9
-3 16 8 24 8 32 0 7 -7 12 -8 12 -2 0 5 -5 15 -12 22 -16 16 4 16 35 1 20 -9
20 -9 4 4 -17 14 -32 81 -16 71 5 -3 9 -1 9 5 0 5 -4 13 -10 16 -5 3 -10 11
-10 16 0 6 5 7 10 4 6 -3 10 0 10 9 0 8 -6 17 -12 19 -8 3 -5 6 5 6 11 1 31
-8 47 -19 15 -10 71 -31 125 -45 146 -38 292 -32 401 17 52 22 157 122 162
153 2 11 8 24 13 30 5 5 9 16 9 26 0 9 9 28 20 42 15 18 17 26 8 30 -10 3 -10
7 1 20 8 10 9 17 3 17 -7 0 -7 10 0 33 6 17 11 45 11 60 1 26 2 27 14 10 12
-15 15 -16 23 -3 7 11 5 16 -5 18 -8 2 -15 8 -15 14 0 5 8 7 17 4 31 -12 -19
35 -52 50 -17 7 -39 22 -50 35 -11 12 -14 19 -7 15 21 -12 13 8 -8 22 -11 7
-20 19 -20 28 0 22 -71 84 -96 84 -12 0 -32 10 -45 23 -42 41 -96 59 -180 61
-43 1 -82 6 -86 11 -5 4 6 5 24 2 18 -4 35 -2 38 3 8 13 -56 13 -90 0 -23 -9
-26 -8 -21 5 3 8 4 15 3 15 -1 -1 -18 -8 -37 -16z m90 -246 c11 -19 17 -42 14
-53 -8 -30 -52 -65 -80 -65 -32 0 -74 42 -74 75 0 38 42 75 85 75 29 0 39 -6
55 -32z"/>
<path d="M4712 1109 c-30 -11 -28 -23 2 -15 16 4 28 0 37 -11 8 -9 9 -14 2
-10 -6 4 -18 0 -26 -8 -9 -8 -23 -15 -32 -15 -9 0 -13 -4 -10 -10 3 -5 -3 -10
-15 -10 -12 0 -19 -4 -15 -9 3 -6 17 -6 34 -1 15 4 34 4 42 0 9 -6 5 -11 -14
-15 -35 -9 -25 -25 16 -25 24 0 28 -3 17 -10 -12 -8 -9 -10 13 -10 28 0 37
-14 15 -23 -7 -2 -28 -3 -46 -1 -19 2 -31 0 -27 -5 3 -5 -3 -12 -12 -14 -14
-4 -13 -5 4 -6 12 0 24 -5 28 -10 3 -6 27 -8 53 -6 40 3 43 2 22 -7 -14 -6
-38 -14 -55 -18 -25 -7 -26 -8 -7 -9 13 -1 20 -5 17 -11 -3 -6 4 -10 17 -11
13 0 17 -3 10 -6 -10 -4 -10 -8 3 -17 12 -9 8 -11 -22 -13 -27 -1 -32 1 -18 6
17 7 17 8 -7 13 -15 3 -25 1 -22 -3 3 -5 -7 -10 -23 -10 -21 -1 -23 -3 -8 -6
11 -3 24 -9 30 -14 5 -5 19 -9 32 -9 13 0 23 -4 23 -10 0 -5 -10 -10 -22 -10
-19 0 -20 -2 -8 -10 8 -5 27 -10 43 -10 15 0 27 -4 27 -10 0 -5 -8 -10 -18
-10 -10 0 -27 -7 -38 -16 -18 -15 -18 -15 9 -11 15 2 27 0 27 -6 0 -6 -20 -7
-52 -4 l-53 6 60 -24 c33 -14 70 -25 83 -25 12 0 22 -4 22 -10 0 -6 -32 -10
-75 -10 -43 0 -75 4 -75 10 0 6 6 10 13 10 8 0 7 4 -3 10 -22 14 -33 12 -26
-5 3 -8 1 -15 -4 -15 -6 0 -10 4 -10 10 0 11 -38 7 -86 -8 -22 -7 -35 -6 -49
4 -10 8 -28 14 -39 14 -16 -1 -12 -6 19 -25 39 -24 39 -25 13 -25 -17 0 -28 5
-28 14 0 16 -30 26 -82 26 -20 0 -40 4 -43 10 -4 6 9 8 34 5 34 -4 39 -3 34
11 -4 11 -16 14 -42 12 -20 -2 -38 -6 -41 -9 -3 -3 -16 -13 -30 -23 l-25 -18
28 5 c16 2 27 0 27 -7 0 -13 -5 -14 -112 -18 -42 -2 -81 -7 -85 -12 -4 -5 18
-6 50 -2 31 3 57 4 57 2 0 -3 -15 -12 -34 -21 -26 -13 -39 -14 -55 -6 -13 7
-22 8 -26 1 -3 -5 -23 -10 -43 -11 -35 -1 -34 -2 23 -19 l60 -18 -45 -1 c-31
-1 -40 -4 -31 -10 8 -5 20 -7 28 -4 7 3 19 0 27 -6 7 -6 16 -8 19 -4 4 3 7 1
7 -6 0 -7 -9 -9 -22 -6 -14 4 -31 -1 -43 -10 -19 -16 -19 -16 8 -12 28 4 38
-10 12 -19 -24 -10 -18 -20 21 -39 24 -11 39 -13 43 -7 3 6 32 10 63 9 31 -1
54 1 53 4 -2 3 -25 14 -50 24 -50 21 -65 51 -17 34 19 -7 38 -6 56 1 15 5 32
7 38 4 6 -4 14 -1 18 6 5 7 20 14 36 16 24 3 49 22 40 32 -2 2 -23 -6 -47 -17
-24 -10 -62 -22 -84 -25 l-40 -7 25 20 25 21 -22 0 c-13 0 -23 5 -23 10 0 6
-21 10 -47 10 l-48 0 29 15 c20 11 33 12 40 5 5 -5 22 -10 37 -10 15 0 29 -6
31 -12 6 -17 86 -19 92 -2 3 7 -2 10 -15 7 -10 -3 -26 0 -34 7 -8 6 -19 9 -25
5 -5 -3 -10 -2 -10 3 0 5 10 12 23 16 18 5 19 8 7 16 -11 7 -5 8 21 5 20 -2
50 0 67 5 20 5 34 5 38 -1 9 -14 3 -18 -39 -22 -21 -2 -40 -7 -43 -10 -10 -9
64 -20 78 -11 10 6 11 5 1 -7 -10 -13 -7 -15 20 -17 42 -2 69 13 38 23 -11 3
-21 11 -21 16 0 6 -4 7 -10 4 -5 -3 -10 -2 -10 4 0 7 16 8 43 5 28 -4 60 0 92
11 54 18 126 14 173 -11 32 -16 42 -17 42 -5 0 5 -10 11 -22 14 -20 3 -18 5
10 12 19 4 29 11 23 15 -7 3 5 6 26 6 21 -1 44 -7 51 -13 11 -11 6 -13 -27
-13 -53 0 -46 -25 13 -41 38 -11 39 -13 16 -19 -24 -8 -24 -8 8 -15 40 -9 23
-27 -18 -19 -22 4 -22 3 -5 -5 30 -14 78 -14 69 1 -4 7 -3 8 5 4 6 -4 9 -12 5
-17 -11 -19 18 -40 46 -34 14 3 37 1 51 -4 21 -8 17 -10 -26 -12 -35 -1 -41
-3 -20 -6 16 -3 35 -12 43 -21 9 -12 15 -13 18 -5 3 7 11 10 18 7 7 -3 19 3
27 12 11 14 11 16 0 10 -10 -7 -12 -2 -7 21 5 22 3 32 -7 36 -8 3 -17 15 -20
27 -4 16 -2 20 9 16 8 -3 14 -1 14 4 0 6 -8 10 -19 10 -10 0 -24 7 -31 15 -7
8 -16 12 -21 9 -5 -3 -19 -2 -32 2 l-22 8 25 7 c24 7 24 7 -5 8 -21 1 -26 4
-16 10 7 5 11 14 7 20 -5 7 -1 9 8 5 9 -3 16 -2 16 4 0 5 12 7 28 4 l27 -5
-24 22 -24 21 39 0 39 1 -30 15 -30 14 37 -4 c36 -4 37 -4 27 21 -7 20 -6 28
3 35 11 6 11 8 0 8 -7 0 -10 5 -7 10 4 6 -7 11 -24 12 -17 0 -37 1 -43 2 -7 1
-13 -5 -13 -11 0 -7 -3 -13 -7 -13 -5 0 -17 0 -28 0 -10 0 -28 10 -40 22 -13
15 -20 17 -20 8 0 -8 12 -24 28 -37 15 -12 21 -22 14 -23 -6 0 -22 11 -34 25
-14 16 -28 23 -42 20 -12 -3 -31 3 -46 15 -14 11 -18 18 -10 15 9 -3 24 1 35
9 19 13 18 15 -18 21 -22 4 -42 15 -48 28 -9 16 -9 19 3 14 8 -3 21 -1 29 4
11 7 8 9 -9 9 -14 0 -21 4 -16 11 3 6 22 9 40 7 19 -2 30 0 26 4 -5 5 -22 10
-38 11 -30 2 -77 37 -50 37 7 0 18 6 24 13 9 10 4 12 -25 9 -27 -3 -34 -1 -31
9 5 16 -8 32 -37 43 -19 8 -19 8 3 17 12 4 22 11 22 14 0 4 -4 4 -8 1 -5 -3
-19 5 -33 18 -19 17 -30 21 -47 15z"/>
<path d="M858 902 c-15 -13 -15 -17 -3 -26 11 -8 13 -19 7 -41 -7 -23 -10 -26
-15 -12 -3 9 -11 17 -17 17 -6 0 -8 -4 -5 -10 4 -6 -12 -10 -40 -10 -52 0 -52
-13 -1 -36 33 -14 33 -14 -49 -19 -62 -3 -65 -4 -65 -19 0 -10 13 -12 53 -10
l52 3 -51 -12 c-28 -7 -59 -18 -69 -26 -13 -12 -21 -12 -36 -3 -15 10 -19 9
-19 -2 0 -8 -3 -21 -6 -30 -5 -12 0 -16 21 -16 14 0 24 -4 21 -9 -3 -5 -15 -7
-25 -4 -10 3 -22 0 -25 -6 -5 -7 3 -11 18 -11 15 0 25 -5 23 -12 -1 -6 9 -15
23 -19 24 -7 24 -7 -5 -8 -17 -1 -38 -9 -47 -18 -9 -10 -24 -24 -32 -31 -20
-16 -21 -32 -1 -32 8 0 15 -7 15 -15 0 -8 -4 -15 -10 -15 -5 0 -10 -6 -10 -14
0 -9 7 -12 21 -9 18 5 20 3 15 -15 -7 -19 -5 -20 30 -10 28 7 39 7 45 -4 6 -9
11 -10 17 -2 4 6 14 14 22 17 10 4 8 6 -7 6 -50 2 -19 18 44 24 69 7 88 3 63
-13 -8 -5 -11 -12 -7 -17 5 -4 12 -1 16 6 7 10 23 12 64 7 42 -6 58 -4 70 8 8
8 17 12 21 9 3 -4 6 -1 6 6 0 9 -6 11 -17 6 -35 -15 -73 -18 -73 -5 0 9 -10
11 -32 6 -31 -5 -32 -5 -14 9 11 8 29 16 40 16 12 1 28 3 36 4 8 1 21 3 28 4
17 2 15 21 -2 21 -8 0 -16 3 -19 8 -2 4 -2 1 0 -6 1 -8 -3 -12 -9 -9 -7 2 -25
-2 -40 -9 -15 -8 -37 -14 -50 -13 -13 0 -34 -2 -48 -6 -19 -5 -21 -4 -10 4 12
8 10 12 -10 20 -18 7 -20 10 -8 10 10 1 17 6 15 13 -1 8 9 11 33 9 19 -1 32 0
28 4 -4 4 1 15 10 25 17 19 23 19 165 11 10 -1 15 -5 12 -11 -3 -5 5 -12 19
-16 28 -7 43 -34 24 -46 -10 -6 -10 -8 1 -8 15 0 6 -14 -10 -16 -5 -1 -13 -2
-19 -3 -5 0 -10 -6 -10 -12 0 -7 10 -9 24 -5 28 7 58 -2 50 -15 -7 -12 30 -11
42 1 5 5 31 10 58 11 31 2 50 7 53 17 4 10 15 12 36 8 20 -4 39 -1 55 10 14 9
21 11 17 4 -6 -10 7 -12 58 -8 l66 6 -29 -25 c-16 -13 -34 -22 -40 -18 -5 3
-22 0 -36 -8 -20 -10 -23 -16 -14 -22 9 -6 3 -13 -21 -27 l-34 -19 31 5 c19 3
39 -1 50 -9 17 -13 16 -14 -17 -8 -24 3 -39 1 -44 -7 -6 -10 -1 -12 24 -7 29
6 31 5 25 -18 -4 -15 -2 -25 5 -25 6 0 -6 -16 -28 -35 -21 -19 -42 -35 -47
-35 -5 0 0 7 10 15 13 10 15 15 6 15 -10 0 -9 3 3 12 12 9 14 17 7 28 -7 11
-12 12 -17 4 -5 -6 -23 -15 -42 -19 -32 -7 -33 -6 -19 8 22 22 62 31 85 18 15
-8 20 -7 20 5 0 19 -73 19 -120 -1 -45 -19 -67 -20 -45 -2 9 6 19 23 23 36 7
22 5 23 -24 19 -17 -2 -31 0 -31 5 0 5 -16 7 -35 5 -19 -2 -35 0 -35 4 0 4 7
8 15 8 8 0 19 9 25 20 11 20 8 21 -37 3 -10 -3 -27 -7 -38 -8 -42 -4 -105 -29
-105 -42 0 -8 4 -12 9 -8 5 3 16 -1 23 -8 8 -9 26 -12 46 -9 18 2 32 0 32 -5
0 -6 -12 -8 -27 -5 -27 5 -27 4 -10 -15 23 -26 22 -33 -7 -33 -14 0 -27 -4
-30 -9 -3 -5 25 -10 63 -13 46 -2 73 -9 85 -20 9 -10 22 -15 29 -13 26 9 71
14 79 8 6 -3 -1 -11 -14 -17 -12 -7 -22 -18 -20 -25 1 -7 -2 -10 -8 -6 -5 3
-13 -1 -16 -9 -4 -12 -17 -15 -47 -12 -23 2 -34 2 -24 -1 18 -4 17 -6 -4 -29
-21 -23 -21 -24 -3 -25 14 0 12 -3 -8 -11 -16 -5 -28 -14 -28 -18 0 -5 14 -4
30 1 17 6 30 15 30 20 0 5 11 4 25 -1 16 -6 25 -6 25 0 0 6 -7 10 -15 10 -8 0
-15 8 -15 18 0 24 55 46 110 44 32 -1 41 1 30 8 -8 5 -13 10 -10 11 3 0 23 2
45 3 22 2 51 6 65 10 24 7 24 7 6 -8 -10 -8 -24 -13 -30 -10 -6 3 -3 -1 6 -9
10 -8 14 -17 10 -22 -4 -4 4 -4 18 0 24 7 24 7 5 -9 -11 -8 -30 -16 -42 -16
-13 0 -33 -10 -45 -22 -17 -17 -34 -22 -74 -23 -29 0 -50 -3 -48 -6 2 -4 -5
-9 -16 -12 -13 -3 -18 -1 -13 6 4 7 0 8 -11 4 -10 -4 -23 -7 -29 -7 -7 0 -6
-4 3 -10 13 -9 13 -10 0 -11 -8 -1 -18 -1 -23 0 -4 1 -32 -13 -61 -29 -30 -17
-57 -27 -60 -22 -3 6 1 13 10 16 9 4 14 9 11 12 -3 3 -16 0 -29 -7 -12 -8 -32
-15 -43 -16 -11 -1 -33 -6 -50 -11 -20 -6 25 -9 140 -10 125 -2 180 2 210 12
45 16 155 28 133 15 -7 -5 -31 -9 -53 -10 -22 0 -51 -5 -65 -9 -16 -5 14 -8
84 -7 75 0 112 4 121 14 8 7 18 13 24 13 6 0 11 5 11 10 0 6 -7 10 -15 10 -8
0 -15 -4 -15 -10 0 -5 -9 -10 -21 -10 -18 0 -19 2 -5 15 8 8 19 15 25 15 5 0
14 6 18 13 4 7 31 20 58 29 l50 16 -40 1 c-28 1 -36 4 -28 12 7 7 28 8 64 2
41 -7 61 -6 86 5 32 15 63 11 63 -8 0 -6 -7 -10 -16 -8 -10 2 -19 -1 -20 -7
-3 -6 18 -9 52 -8 56 2 91 13 42 13 -14 0 -28 7 -32 15 -6 15 3 19 42 15 12
-1 22 4 22 10 0 8 -24 11 -80 8 -47 -2 -79 1 -77 7 1 5 16 9 32 8 25 -2 23 0
-9 8 -22 5 -46 15 -53 21 -15 12 -92 12 -138 0 -19 -6 -38 -4 -54 4 l-23 12
31 7 c17 3 35 4 41 0 6 -4 18 -1 26 6 12 10 12 14 2 20 -8 6 3 9 28 9 26 0 47
6 55 17 13 15 11 16 -13 9 -19 -4 -28 -2 -28 5 0 8 15 10 48 5 50 -6 92 7 60
19 -10 4 -21 5 -25 2 -5 -3 -19 1 -33 10 -14 8 -17 12 -7 9 35 -11 9 25 -39
52 -17 10 -18 12 -1 13 9 1 22 3 27 4 6 1 13 3 18 4 4 1 1 5 -7 10 -7 5 -28 5
-47 1 -24 -6 -37 -4 -45 7 -7 7 -17 12 -24 10 -6 -3 -12 4 -12 14 -1 10 4 19
12 19 7 0 15 5 17 12 3 9 6 9 12 0 4 -7 2 -12 -3 -12 -6 0 -11 -4 -11 -10 0
-8 18 -13 95 -24 17 -2 38 -7 48 -11 12 -5 17 -2 17 9 0 10 9 16 23 17 21 0
21 1 2 8 -13 5 -23 3 -30 -6 -8 -11 -17 -12 -38 -4 -16 6 -25 16 -22 22 5 7
-6 8 -32 5 -21 -3 -32 -3 -25 0 18 9 4 24 -23 24 -13 0 -27 5 -30 11 -4 5 -17
9 -28 8 -83 -6 -113 12 -42 25 20 4 33 11 30 16 -3 5 -12 7 -20 3 -8 -3 -15 0
-15 6 0 6 -7 8 -15 5 -8 -4 -12 -10 -9 -15 8 -14 -46 -10 -94 6 -24 9 -47 13
-52 10 -4 -2 -14 2 -21 11 -11 13 -11 15 2 14 26 -4 39 0 39 11 0 6 -9 9 -20
6 -11 -3 -18 -1 -14 4 3 5 -5 9 -18 9 -27 0 -81 -33 -71 -43 3 -4 -1 -7 -9 -7
-18 0 -32 27 -18 35 17 10 11 25 -7 18 -11 -4 -14 -3 -9 5 4 8 -2 16 -16 21
-20 8 -18 10 17 10 119 1 131 2 105 13 -14 5 -37 7 -51 4 -14 -3 -32 0 -39 7
-9 8 -11 9 -6 0 4 -7 -1 -9 -15 -6 -21 6 -21 6 2 20 23 13 23 14 -8 8 -21 -4
-33 -3 -33 4 0 6 6 11 13 12 6 0 2 4 -11 10 -14 5 -21 14 -17 21 4 7 0 5 -8
-4 -15 -19 -57 -25 -57 -8 0 6 -6 10 -14 10 -8 0 -18 5 -22 11 -4 8 0 9 15 4
12 -4 21 -2 21 4 0 6 -8 11 -17 12 -10 1 0 7 22 15 l40 14 -62 -4 c-53 -3 -60
-2 -48 10 7 8 23 14 35 14 12 0 19 4 15 9 -3 6 16 16 42 24 39 12 43 15 21 16
-16 1 -28 5 -28 10 0 6 -12 6 -32 0 -41 -11 -41 -11 -33 1 10 16 -48 10 -67
-8z"/>
<path d="M3970 435 c0 -13 -19 -20 -43 -16 -5 1 -5 -4 -1 -10 5 -9 1 -10 -14
-7 -12 4 -24 3 -27 -2 -6 -10 50 -21 70 -14 8 4 15 12 15 20 0 15 10 17 35 8
13 -5 14 -8 3 -15 -8 -5 -3 -8 16 -6 16 1 31 -3 33 -9 2 -7 -6 -12 -19 -12
-13 0 -36 -2 -53 -5 -16 -3 -41 -6 -55 -7 -42 -1 3 -21 50 -22 22 0 40 -4 40
-8 0 -4 -15 -8 -32 -7 -81 0 -103 -3 -88 -13 8 -5 27 -10 42 -10 15 0 30 -5
33 -10 4 -7 -2 -9 -19 -4 -37 9 -32 -2 10 -22 32 -15 34 -19 18 -25 -18 -7
-18 -8 0 -8 12 -1 16 -6 12 -16 -3 -8 -1 -15 5 -15 6 0 9 -8 7 -17 -3 -18 -29
-25 -99 -27 -21 -1 -36 -6 -36 -13 0 -14 224 -12 248 2 12 8 12 6 1 -8 -8 -9
-34 -19 -58 -23 -24 -3 -44 -11 -44 -16 0 -5 8 -7 18 -4 9 3 24 1 32 -5 12 -8
10 -9 -7 -4 -14 4 -23 2 -23 -4 0 -6 6 -11 14 -11 7 0 29 -3 47 -7 32 -6 33
-6 16 11 -23 24 -22 26 14 16 26 -8 30 -7 25 6 -5 12 -1 14 17 8 12 -4 47 -13
77 -19 32 -7 54 -17 52 -23 -1 -7 2 -12 8 -12 6 0 10 5 10 10 0 12 42 4 78
-14 19 -10 -8 -13 -145 -16 -340 -8 -360 -7 -331 11 9 6 9 9 1 9 -6 0 -15 -4
-18 -10 -7 -11 -138 -14 -148 -3 -4 3 -2 12 4 19 7 9 4 14 -12 19 -15 5 -26 2
-34 -9 -7 -9 -21 -16 -31 -16 -18 -1 -18 -1 -1 -11 9 -5 22 -7 27 -4 6 3 10 1
10 -4 0 -6 -5 -11 -12 -11 -6 0 -8 -3 -4 -7 4 -4 120 -5 259 -3 139 2 279 3
312 2 181 -5 607 -10 593 -5 -10 2 -18 9 -18 14 0 7 -51 8 -142 5 -79 -3 -159
-2 -178 3 -28 7 -30 9 -10 10 21 1 17 6 -30 36 -61 40 -54 37 -119 39 -27 0
-47 -3 -44 -7 7 -11 -48 3 -74 19 -12 8 -28 14 -35 14 -7 0 -24 10 -38 21
l-25 20 33 -16 c17 -8 32 -11 32 -6 0 6 8 8 18 4 14 -5 13 -3 -3 10 -15 11
-22 12 -27 4 -6 -9 -8 -9 -8 1 0 14 -36 16 -45 2 -10 -15 -35 -12 -35 5 0 11
12 15 49 15 28 0 53 5 57 11 3 6 19 9 35 5 15 -3 31 -1 34 4 3 6 -4 10 -17 11
-23 1 -23 1 2 9 14 4 43 5 64 2 26 -3 37 -2 32 6 -3 5 0 13 6 16 10 5 10 7 1
12 -7 3 -13 10 -13 16 0 6 9 3 21 -8 15 -14 22 -15 28 -6 5 8 15 10 27 5 17
-6 18 -5 4 12 -14 17 -13 18 3 12 11 -4 17 -2 17 8 0 8 9 15 20 15 11 0 20 4
20 9 0 9 -30 25 -42 23 -5 -1 -8 3 -8 9 0 7 9 9 24 5 28 -7 86 3 86 14 0 7
-71 40 -86 40 -3 0 -4 -6 -1 -14 4 -10 -2 -16 -16 -18 -15 -2 -22 -10 -21 -25
0 -19 -3 -22 -24 -16 -21 5 -24 3 -19 -11 8 -20 -9 -21 -29 -1 -8 8 -21 12
-28 9 -8 -3 -17 -1 -21 5 -3 6 -11 11 -16 11 -6 0 -7 -4 -4 -10 10 -16 -5 -12
-32 10 -28 22 -43 25 -43 10 0 -5 6 -10 13 -10 7 0 26 -15 43 -32 16 -18 22
-27 14 -20 -18 15 -34 16 -24 0 4 -7 3 -8 -5 -4 -6 4 -9 12 -6 17 4 5 -7 14
-22 21 -15 7 -32 19 -36 26 -6 9 -18 11 -34 7 -16 -4 -22 -2 -18 5 3 5 0 10
-7 11 -7 1 -28 2 -47 4 -30 3 -53 10 -103 36 -24 12 -28 11 -28 -6z"/>
<path d="M1951 144 c-19 -14 -29 -14 -67 -4 -51 15 -70 8 -25 -8 17 -6 31 -14
31 -18 0 -3 -6 -4 -14 -1 -10 4 -14 0 -13 -14 1 -18 27 -28 27 -10 0 5 7 11
14 14 10 4 13 1 9 -9 -3 -7 -1 -14 5 -14 12 0 10 -33 -3 -42 -16 -11 10 -31
32 -24 24 8 50 56 30 56 -7 0 -5 5 5 10 11 7 26 7 43 0 34 -13 95 -13 95 0 0
6 7 10 16 10 10 0 14 -6 11 -14 -4 -11 2 -14 26 -14 50 1 61 16 35 44 -19 19
-25 21 -38 10 -8 -7 -27 -13 -42 -14 -22 -1 -26 2 -21 16 5 14 3 15 -8 5 -15
-15 -93 -18 -84 -4 3 5 -3 12 -12 14 -17 4 -17 5 0 6 9 0 17 6 17 11 0 16 -43
12 -69 -6z"/>
</g>
</svg>
